<svg width="950" height="127" viewBox="0 0 950 127" fill="none" xmlns="http://www.w3.org/2000/svg">
<rect width="950" height="127" fill="black"/>
<rect width="950" height="127" fill="black"/>
<path d="M436.955 72.168C437.143 72.168 437.236 72.2793 437.236 72.502L437.008 75.4199C436.984 75.6543 436.844 75.7715 436.586 75.7715L426.496 75.8945C426.285 75.8945 426.18 75.7539 426.18 75.4727L426.215 72.3965C426.215 72.2207 426.309 72.1094 426.496 72.0625L429.256 72.3438V52.6562L426.514 52.8848C426.396 52.8848 426.291 52.8379 426.197 52.7441C426.115 52.6504 426.074 52.5332 426.074 52.3926L426.268 49.9316C426.291 49.6152 426.455 49.4336 426.76 49.3867C427.064 49.3281 427.463 49.2695 427.955 49.2109C428.459 49.1406 428.998 49.082 429.572 49.0352C430.158 48.9766 430.768 48.9238 431.4 48.877C432.045 48.8301 432.684 48.7891 433.316 48.7539C434.688 48.6953 436.023 48.666 437.324 48.666C438.625 48.666 439.902 48.8242 441.156 49.1406C442.422 49.457 443.477 49.9492 444.32 50.6172C445.996 51.9766 446.834 54.1211 446.834 57.0508C446.834 61.2227 444.883 63.7188 440.98 64.5391C439.797 64.7969 438.514 64.9258 437.131 64.9258C435.748 64.9258 434.377 64.8672 433.018 64.75V72.3965L436.955 72.168ZM433.018 61.5508C434.154 61.6562 435.268 61.709 436.357 61.709C437.447 61.709 438.361 61.6504 439.1 61.5332C439.85 61.4043 440.494 61.1641 441.033 60.8125C442.17 60.0859 442.738 58.8203 442.738 57.0156C442.738 53.8047 440.969 52.1992 437.43 52.1992C436.094 52.1992 434.623 52.252 433.018 52.3574V61.5508ZM448.293 56.6641C448.293 56.4297 448.428 56.3125 448.697 56.3125L456.678 56.1367C456.889 56.1367 456.994 56.2656 456.994 56.5234L457.082 59.5117C457.059 59.6641 457.023 59.7637 456.977 59.8105C456.93 59.8574 456.836 59.8809 456.695 59.8809L454.393 59.9336L458.963 72.8535L463.111 59.8457L460.703 60.0742C460.516 60.0742 460.416 59.9746 460.404 59.7754L460.562 56.5234C460.574 56.2656 460.703 56.1367 460.949 56.1367L468.631 55.9609C468.818 55.9727 468.912 56.1133 468.912 56.3828L468.736 59.4238C468.713 59.6699 468.584 59.793 468.35 59.793L466.803 59.6523L458.33 83.5586C458.236 83.8398 458.096 83.9805 457.908 83.9805L454.428 83.0312C454.17 82.9961 454.041 82.8789 454.041 82.6797C454.041 82.5977 454.064 82.5156 454.111 82.4336L457.961 75.0684L456.449 75.1211C456.297 75.1211 456.168 75.0156 456.062 74.8047L450.156 60.0215L448.486 60.0566C448.24 60.0566 448.117 59.916 448.117 59.6348L448.293 56.6641ZM486.648 62.4297C486.836 62.4531 486.93 62.5645 486.93 62.7637L486.613 65.418C486.59 65.5586 486.549 65.6523 486.49 65.6992C486.443 65.7344 486.344 65.7578 486.191 65.7695L472.428 65.8398C472.264 65.8398 472.182 65.6992 472.182 65.418L472.357 62.9395C472.381 62.7168 472.475 62.6055 472.639 62.6055L486.648 62.4297ZM505.492 75.4375C504.508 75.7656 503.266 75.9297 501.766 75.9297C500.266 75.9297 498.484 75.7422 496.422 75.3672L496.545 76.7734C496.545 76.9844 496.41 77.0898 496.141 77.0898L493.117 77.1777C492.672 77.1543 492.426 76.9258 492.379 76.4922L491.711 69.6895C491.711 69.4551 491.852 69.3262 492.133 69.3027L495.578 68.9863C495.801 68.9863 495.924 69.1211 495.947 69.3906L496.176 72.2383C497.863 72.4141 499.545 72.502 501.221 72.502C502.896 72.502 504.068 72.2207 504.736 71.6582C505.404 71.084 505.738 70.2227 505.738 69.0742C505.738 68.043 505.346 67.1992 504.561 66.543C504.15 66.1914 503.617 65.8457 502.961 65.5059L498.145 63.168C496.445 62.3594 495.279 61.7148 494.646 61.2344C494.014 60.7422 493.527 60.2617 493.188 59.793C492.508 58.8438 492.168 57.7305 492.168 56.4531C492.168 55.1641 492.367 54.0684 492.766 53.166C493.164 52.252 493.727 51.4668 494.453 50.8105C495.977 49.416 497.91 48.7188 500.254 48.7188C501.918 48.7188 503.723 48.9824 505.668 49.5098C507.168 49.0527 508.105 48.8242 508.48 48.8242C508.867 48.8242 509.072 48.9824 509.096 49.2988L508.744 56.5938C508.721 56.8633 508.627 56.998 508.463 56.998L505.51 56.8926C505.346 56.8809 505.246 56.8398 505.211 56.7695C505.176 56.6992 505.152 56.5879 505.141 56.4355L505 52.5684C503.605 52.2402 502.445 52.0762 501.52 52.0762C499.188 52.0762 497.6 52.7266 496.756 54.0273C496.451 54.4961 496.299 55.0527 496.299 55.6973C496.299 56.3301 496.451 56.8574 496.756 57.2793C497.061 57.7012 497.5 58.0996 498.074 58.4746C498.648 58.8379 499.352 59.207 500.184 59.582L503.066 60.9004C505.773 62.1543 507.578 63.2734 508.48 64.2578C509.465 65.3242 509.957 66.8184 509.957 68.7402C509.957 72.1973 508.469 74.4297 505.492 75.4375ZM521.77 75.8945C521.207 75.9297 520.375 75.9473 519.273 75.9473C518.184 75.9473 517.293 75.8359 516.602 75.6133C515.922 75.3906 515.359 75.0332 514.914 74.541C514.035 73.5684 513.596 72.0039 513.596 69.8477C513.596 68.4531 513.613 67.123 513.648 65.8574C513.695 64.5801 513.73 63.4492 513.754 62.4648C513.789 61.4688 513.824 60.4844 513.859 59.5117L511.521 59.3359C511.287 59.3242 511.17 59.166 511.17 58.8613L511.152 56.8398C511.152 56.582 511.281 56.4531 511.539 56.4531L514 56.4004C514.023 55.791 514.047 55.2109 514.07 54.6602L514.211 52.0059C514.246 51.3848 514.293 51.0332 514.352 50.9512C514.41 50.8574 514.516 50.7988 514.668 50.7754L517.938 50.3887C518.184 50.3887 518.307 50.5176 518.307 50.7754C518.307 51.1504 518.242 52 518.113 53.3242L517.85 56.2949L524.74 56.1016C524.998 56.1016 525.127 56.2422 525.127 56.5234V59.3887C525.127 59.623 524.998 59.7461 524.74 59.7578L517.621 59.459C517.422 62.2012 517.322 64.5918 517.322 66.6309C517.322 68.6699 517.363 69.9883 517.445 70.5859C517.539 71.1836 517.703 71.6465 517.938 71.9746C518.336 72.5371 519.186 72.8184 520.486 72.8184C520.861 72.8184 521.201 72.8066 521.506 72.7832C521.471 72.373 521.453 72.0684 521.453 71.8691C521.453 71.6582 521.564 71.5352 521.787 71.5L524.723 71.1484C524.969 71.1484 525.092 71.2832 525.092 71.5527L525.162 76.0176C525.162 76.2168 525.074 76.334 524.898 76.3691L522.297 76.791C522.027 76.7676 521.875 76.6562 521.84 76.457L521.77 75.8945ZM528.221 66.1211C528.221 64.1172 528.385 62.4531 528.713 61.1289C529.053 59.793 529.551 58.7266 530.207 57.9297C531.426 56.4883 533.412 55.7676 536.166 55.7676C538.088 55.7676 539.488 55.9609 540.367 56.3477C541.258 56.7344 541.955 57.1738 542.459 57.666C542.975 58.1582 543.414 58.791 543.777 59.5645C544.504 61.1465 544.867 63.1387 544.867 65.541C544.867 67.9316 544.697 69.7773 544.357 71.0781C544.029 72.3789 543.531 73.4219 542.863 74.207C541.621 75.6367 539.611 76.3516 536.834 76.3516C533.928 76.3516 531.812 75.6484 530.488 74.2422C528.977 72.6484 528.221 69.9414 528.221 66.1211ZM540.191 71.5879C540.543 71.1191 540.807 70.4629 540.982 69.6191C541.158 68.7754 541.246 67.7441 541.246 66.5254C541.246 65.3066 541.182 64.3223 541.053 63.5723C540.924 62.8223 540.742 62.2012 540.508 61.709C540.285 61.2051 540.016 60.8125 539.699 60.5312C539.383 60.2383 539.037 60.0215 538.662 59.8809C538.1 59.6699 537.355 59.5645 536.43 59.5645C535.504 59.5645 534.766 59.6348 534.215 59.7754C533.664 59.916 533.207 60.2148 532.844 60.6719C532.152 61.5625 531.807 63.3555 531.807 66.0508C531.807 69.8828 532.838 72.0449 534.9 72.5371C535.533 72.6895 536.219 72.7656 536.957 72.7656C537.695 72.7656 538.328 72.6895 538.855 72.5371C539.395 72.373 539.84 72.0566 540.191 71.5879ZM550.896 57.4727C551.4 56.9336 552.033 56.5117 552.795 56.207C553.557 55.8906 554.488 55.7324 555.59 55.7324C556.703 55.7324 557.939 55.9023 559.299 56.2422L562.604 55.627C562.814 55.6621 562.932 55.791 562.955 56.0137L563.254 62.2715C563.23 62.5527 563.102 62.7109 562.867 62.7461L559.932 63.1328C559.686 63.1328 559.562 63.0039 559.562 62.7461V59.7754C558.812 59.5996 558.01 59.5117 557.154 59.5117C556.299 59.5117 555.543 59.6523 554.887 59.9336C554.242 60.2148 553.738 60.6367 553.375 61.1992C552.742 62.1836 552.426 63.877 552.426 66.2793C552.426 69.8887 553.164 71.9453 554.641 72.4492C555.109 72.6133 555.648 72.6953 556.258 72.6953C557.137 72.6953 558.145 72.584 559.281 72.3613L559.352 71.1484C559.375 70.8672 559.498 70.7148 559.721 70.6914L562.498 70.7969C562.662 70.8203 562.756 70.9551 562.779 71.2012L563.096 76.7031C563.096 76.9492 562.979 77.0723 562.744 77.0723H559.369C559.193 77.0723 559.094 76.9609 559.07 76.7383L559.123 75.7363C554.881 76.5684 551.969 75.9766 550.387 73.9609C549.262 72.5078 548.699 70.1582 548.699 66.9121C548.699 64.7441 548.793 63.127 548.98 62.0605C549.168 60.9941 549.408 60.0977 549.701 59.3711C549.994 58.6445 550.393 58.0117 550.896 57.4727ZM566.33 73.1699C566.354 72.9473 566.447 72.8359 566.611 72.8359H568.879V51.7949L566.365 51.4609C566.236 51.4375 566.148 51.4023 566.102 51.3555C566.066 51.3086 566.049 51.2148 566.049 51.0742L565.979 48.6836C565.979 48.4727 566.119 48.3496 566.4 48.3145L571.797 47.752C572.02 47.752 572.148 47.8926 572.184 48.1738L572.518 51.3027L572.289 64.5918L574.539 64.5039L578.775 59.2832L576.631 59.5293C576.443 59.5293 576.35 59.418 576.35 59.1953L576.49 56.3652C576.514 56.1309 576.654 56.0137 576.912 56.0137L584.875 55.9434C585.039 55.9434 585.121 56.084 585.121 56.3652L584.945 59.0195C584.922 59.2422 584.828 59.3535 584.664 59.3535L582.889 59.1953L577.387 65.752L582.449 72.5371L585.35 72.6426C585.572 72.6426 585.695 72.7832 585.719 73.0645L585.895 75.4727C585.895 75.6133 585.859 75.707 585.789 75.7539C585.73 75.7891 585.631 75.8125 585.49 75.8242L580.129 76.0352C579.977 76.0352 579.818 75.9062 579.654 75.6484L574.328 67.5098L572.236 67.668L572.148 72.6777L573.941 72.4844C574.129 72.4844 574.223 72.5957 574.223 72.8184L574.082 75.4727C574.07 75.6133 574.035 75.707 573.977 75.7539C573.918 75.7891 573.812 75.8125 573.66 75.8242L566.752 76.0703C566.576 76.0703 566.477 75.9238 566.453 75.6309L566.33 73.1699Z" fill="white"/>
<path d="M387.22 40.0004C385.282 40.0094 383.431 40.1764 381.803 40.4675C377.006 41.3236 376.135 43.1155 376.135 46.4201V50.7844H387.471V52.2391H376.135H371.88C368.585 52.2391 365.7 54.2395 364.798 58.0449C363.757 62.4067 363.711 65.1286 364.798 69.683C365.604 73.0732 367.528 75.4887 370.823 75.4887H374.721V70.2569C374.721 66.4772 377.958 63.1432 381.803 63.1432H393.126C396.278 63.1432 398.795 60.5217 398.795 57.3242V46.4201C398.795 43.3167 396.203 40.9855 393.126 40.4675C391.179 40.1401 389.158 39.9913 387.22 40.0004ZM381.089 43.5105C382.26 43.5105 383.217 44.4922 383.217 45.6994C383.217 46.9022 382.26 47.8748 381.089 47.8748C379.914 47.8748 378.962 46.9022 378.962 45.6994C378.962 44.4922 379.914 43.5105 381.089 43.5105ZM400.208 52.2391V57.3242C400.208 61.2665 396.899 64.5847 393.126 64.5847H381.803C378.701 64.5847 376.135 67.2661 376.135 70.4037V81.3078C376.135 84.4112 378.806 86.2366 381.803 87.1269C385.391 88.1927 388.833 88.3854 393.126 87.1269C395.98 86.2922 398.795 84.6124 398.795 81.3078V76.9435H387.471V75.4887H398.795H404.463C407.758 75.4887 408.985 73.1674 410.131 69.683C411.315 66.096 411.264 62.6464 410.131 58.0449C409.317 54.7318 407.762 52.2391 404.463 52.2391H400.208ZM393.84 79.853C395.015 79.853 395.967 80.8257 395.967 82.0285C395.967 83.2356 395.015 84.2174 393.84 84.2174C392.669 84.2174 391.712 83.2356 391.712 82.0285C391.712 80.8257 392.669 79.853 393.84 79.853Z" fill="#06D6A0"/>
</svg>
